<svg width="26606" height="5318" viewBox="0 0 26606 5318" fill="none" xmlns="http://www.w3.org/2000/svg">
<path d="M4800.04 2493.23C4800.04 1504.36 5367.19 939.286 6308.28 939.286C7236.9 939.286 7633.7 1510.59 7658.63 1969.71V2032.03H7182.89C7160.04 1751.57 6943.98 1369.32 6316.59 1369.32C5682.96 1369.32 5319.41 1778.58 5319.41 2493.23C5319.41 3207.87 5682.96 3615.06 6316.59 3615.06C6946.06 3615.06 7162.12 3224.49 7193.28 2933.65H7669.02V2995.97C7631.62 3471.71 7241.06 4047.17 6308.28 4047.17C5367.19 4047.17 4800.04 3482.1 4800.04 2493.23ZM7871.15 2449.6C7914.77 2048.65 8263.79 1793.12 8839.24 1793.12C9412.62 1793.12 9757.48 2048.65 9757.48 2611.64V3989H9302.52V3731.39H9269.28C9188.26 3876.82 8990.9 4030.55 8565.02 4030.55C8089.28 4030.55 7761.04 3791.64 7761.04 3382.38C7761.04 2952.35 8091.36 2759.14 8521.39 2705.13L9285.9 2609.57V2557.63C9285.9 2277.17 9134.24 2162.91 8830.93 2162.91C8527.63 2162.91 8353.12 2277.17 8330.27 2511.92H7871.15V2449.6ZM8251.32 3355.37C8251.32 3542.35 8407.13 3654.53 8660.58 3654.53C9011.67 3654.53 9285.9 3469.63 9285.9 3072.84V2964.81L8627.34 3052.06C8398.82 3083.23 8251.32 3170.48 8251.32 3355.37ZM9807.44 1842.98H10285.3V1273.76H10777.6V1842.98H11384.2V2223.16H10777.6V3548.58L10810.9 3581.82H11373.8V3989H10877.3C10505.5 3989 10285.3 3797.87 10285.3 3432.24V2223.16H9807.44V1842.98ZM11553.8 2449.6C11597.4 2048.65 11946.4 1793.12 12521.9 1793.12C13095.2 1793.12 13440.1 2048.65 13440.1 2611.64V3989H12985.1V3731.39H12951.9C12870.9 3876.82 12673.5 4030.55 12247.6 4030.55C11771.9 4030.55 11443.7 3791.64 11443.7 3382.38C11443.7 2952.35 11774 2759.14 12204 2705.13L12968.5 2609.57V2557.63C12968.5 2277.17 12816.9 2162.91 12513.6 2162.91C12210.3 2162.91 12035.7 2277.17 12012.9 2511.92H11553.8V2449.6ZM11933.9 3355.37C11933.9 3542.35 12089.8 3654.53 12343.2 3654.53C12694.3 3654.53 12968.5 3469.63 12968.5 3072.84V2964.81L12310 3052.06C12081.4 3083.23 11933.9 3170.48 11933.9 3355.37ZM13756.4 997.455H14248.8V3989H13756.4V997.455ZM14583.3 1842.98H15075.7V3989H14583.3V1842.98ZM14564.6 1523.05V1070.17H15092.3V1523.05H14564.6ZM15310.5 2428.83C15310.5 2040.34 15642.9 1795.2 16226.7 1795.2C16812.5 1795.2 17155.3 2040.34 17190.6 2441.29V2503.61H16741.9C16727.4 2252.24 16521.7 2164.99 16228.8 2164.99C15937.9 2164.99 15778 2252.24 15778 2418.44C15778 2584.64 15910.9 2638.65 16095.8 2667.73L16498.8 2730.06C16926.8 2796.54 17219.7 2973.12 17219.7 3363.68C17219.7 3754.25 16910.2 4036.78 16286.9 4036.78C15663.7 4036.78 15302.2 3754.25 15271.1 3374.07V3311.75H15728.1C15748.9 3563.12 15979.5 3666.99 16286.9 3666.99C16594.4 3666.99 16750.2 3558.97 16750.2 3390.69C16750.2 3224.49 16615.2 3155.94 16388.7 3120.62L15985.7 3058.3C15582.7 2995.97 15310.5 2817.31 15310.5 2428.83ZM17291.4 2914.95C17291.4 2175.38 17715.2 1793.12 18365.4 1793.12C19011.5 1793.12 19385.5 2183.69 19385.5 2829.78V3049.99H17763C17771.3 3409.39 17993.6 3660.76 18363.4 3660.76C18720.7 3660.76 18876.5 3469.63 18909.7 3307.59H19341.9V3369.92C19283.7 3650.37 19026.1 4038.86 18369.6 4038.86C17717.3 4038.86 17291.4 3654.53 17291.4 2914.95ZM17769.2 2684.35H18922.2C18918.1 2391.43 18731.1 2167.07 18359.2 2167.07C17997.7 2167.07 17796.2 2397.66 17769.2 2684.35Z" fill="#6E5A5A"/>
<path d="M20290.4 1726.56H20840.3V1773.7L19998.2 3989H19448.3V3941.87L20290.4 1726.56Z" fill="#8AF334"/>
<path d="M21084.5 1872.07H21433.5V2104.74H21466.8C21556.1 1978.02 21722.3 1824.28 22108.7 1824.28C22476.4 1824.28 22650.9 1982.17 22725.7 2167.07H22758.9C22860.7 1988.4 23053.9 1824.28 23463.2 1824.28C23895.3 1824.28 24177.8 2059.04 24177.8 2518.16V3989H23816.4V2551.4C23816.4 2270.94 23666.8 2129.67 23373.9 2129.67C23045.6 2129.67 22812.9 2316.64 22812.9 2730.06V3989H22451.5V2551.4C22451.5 2270.94 22306 2129.67 22009 2129.67C21680.7 2129.67 21446 2316.64 21446 2730.06V3989H21084.5V1872.07ZM24426.2 2929.49C24426.2 2210.69 24825 1822.21 25452.4 1822.21C26081.9 1822.21 26428.8 2214.85 26428.8 2838.09V3020.9H24779.3C24787.6 3461.32 25041.1 3743.86 25452.4 3743.86C25843 3743.86 26023.7 3521.57 26057 3326.29H26385.2V3388.61C26337.4 3648.3 26092.3 4038.86 25456.6 4038.86C24829.2 4038.86 24426.2 3650.37 24426.2 2929.49ZM24785.6 2732.14H26079.8C26075.7 2370.66 25861.7 2115.13 25450.3 2115.13C25047.3 2115.13 24814.6 2374.81 24785.6 2732.14Z" fill="#6E5A5A"/>
<path d="M2368.63 1545.1L1967.16 1950.16V2076.54L2056.43 1987.26L2368.63 1672.27V1675.07L2770.82 1272.87L3308.11 1232.84L3635.79 1560.51L3037.36 2158.94L2470.71 2157.83L2377.68 2250.85L2943.34 2251.96L3088.67 2252.25L3088.67 2251.5H3513.78L3922 2603.1V3066.51H3068.94L2670.75 2665.04H2543.82L3058.04 3183.5L3059.99 3181.57L3346 3467.58L3386.21 4007.18L3163.43 4229.96L3067.59 4341.78L2461.03 3735.22V3167.44L2368.63 3075.04V3249.99H2368.38V3729.23H2368.63V4210.01L2015.51 4620H1553.61V3772.23L1955.09 3367.16V3241.21L1830.42 3365.88L1830.36 3365.82L1553.61 3645.05V3642.69L1152.42 4043.88L612.821 4084.09L286.214 3757.49L884.153 3159.55H1451.92L1544.96 3066.51H1365.72V3066.34H835.027V3066.51H409.992L0 2713.38V2251.5H852.807L1250.99 2652.97H1377.92L856.995 2127.74L855.267 2129.46L574.986 1849.18L534.947 1311.89L862.624 984.215L862.629 984.22L862.635 984.215L1461.29 1582.87V2150.63L1553.61 2242.95L1553.61 2063.27H1553.93V1584.04H1553.61V1106.23L1905.21 698H2368.63V1545.1ZM2226.88 3108.49V3870.72H2227.13V4157.47L1950.63 4478.5L2227.13 4157.47V3870.72H2226.88V3108.49H2226.88ZM1890.78 4347.96H1825.66V4347.96H1890.78V4347.96ZM2472.65 2523.54L2337.25 2658.94L2472.78 2794.47H2472.9L3057.25 3383.64L3059.61 3381.29L3208.8 3530.49L3240.29 3953L3240.29 3953L3208.8 3530.49L3059.61 3381.29L3057.25 3383.63L2472.9 2794.46H2472.78L2337.25 2658.94L2472.65 2523.54H2472.65ZM2602.52 3491.98L3059.61 3949.06L3059.61 3949.06L2602.52 3491.98V3491.98ZM1695.1 3830.47V3830.47L1825.66 3698.74V3698.74L1695.1 3830.47ZM1031.48 3780.1L716.988 3803.53L670.942 3757.49V3757.49L716.988 3803.53L1031.48 3780.1L1695.1 3116.47V3116.47L1031.48 3780.1ZM486.32 3757.49L942.763 3301.04H1127.38L1127.38 3301.04H942.763L486.32 3757.49ZM2227.13 3108.49H2227.13V2925.01H2227.13V3108.49ZM2053.37 2942.82L2096.59 2986.04V2986.04L2053.37 2942.82L2053.37 2942.82ZM3780.5 2667.97V2925.01H3780.5V2667.97L3461.24 2392.99H3461.24L3780.5 2667.97ZM2998.41 2794.46L2998.41 2794.47H3649.96V2794.46H2998.41ZM272.045 2588.66L510.997 2794.47H1449.34L1584.86 2658.94L1449.34 2794.46H510.997L272.045 2588.66V2588.66ZM1633.96 2794.46L1633.96 2794.47H1695.1V2794.46H1633.96ZM2017.11 2794.46H1905.01L1825.66 2715.11V2715.12L1905.01 2794.47L2017.11 2794.46ZM2227.13 2769.06L2227.13 2769.06L2227.13 2794.47H2288.16L2288.15 2794.46H2227.13L2227.13 2769.06ZM1677.18 2566.63L1695.1 2548.7L1677.18 2566.63L1634.09 2523.54L1677.18 2566.63ZM2227.13 2548.82L2244.94 2566.63L2244.94 2566.63L2227.13 2548.82V2523.54H2227.13V2548.82ZM3229.93 2394.02V2394.02L2704.54 2392.99H2704.54L3229.93 2394.02ZM2419.14 2392.43L2603.4 2392.79L2603.2 2392.99H2603.2L2603.4 2392.79L2419.14 2392.43H2419.14ZM2891.77 1536.66L2227.13 2201.29V2392.99H2227.13V2201.29L2891.77 1536.66L3203.94 1513.4L2891.77 1536.66ZM2053.37 2375.06L2071.31 2392.99H2071.31L2053.37 2375.06L2096.59 2331.84V2331.84L2053.37 2375.06ZM2090.26 2153.54L2090.56 2153.84V2153.83L2090.26 2153.54H2090.26ZM3253.93 1378.76L3435.68 1560.51L2978.87 2017.32L2978.87 2017.33L3435.68 1560.51L3253.93 1378.76H3253.93ZM2227.13 2016.04V2016.67L2227.13 2016.67V2016.04L2227.13 2016.04ZM2227.13 1486.85L2096.59 1618.57V1618.57L2227.13 1486.85V839.496H2227.13V1486.85Z" fill="#6E5A5A"/>
</svg>
